<?xml version="1.0" encoding="UTF-8"?>
<!DOCTYPE svg PUBLIC "-//W3C//DTD SVG 1.1//EN" "http://www.w3.org/Graphics/SVG/1.1/DTD/svg11.dtd">
<svg xmlns="http://www.w3.org/2000/svg" version="1.1" width="1301px" height="1301px" style="shape-rendering:geometricPrecision; text-rendering:geometricPrecision; image-rendering:optimizeQuality; fill-rule:evenodd; clip-rule:evenodd" xmlns:xlink="http://www.w3.org/1999/xlink">
<g><path style="opacity:1" fill="#fefefe" d="M -0.5,-0.5 C 433.167,-0.5 866.833,-0.5 1300.5,-0.5C 1300.5,433.167 1300.5,866.833 1300.5,1300.5C 866.833,1300.5 433.167,1300.5 -0.5,1300.5C -0.5,866.833 -0.5,433.167 -0.5,-0.5 Z"/></g>
<g><path style="opacity:1" fill="#000000" d="M 1014.5,28.5 C 1032.83,27.0812 1049.5,31.5812 1064.5,42C 1075.21,51.0478 1086.21,59.7144 1097.5,68C 1109.76,73.2535 1122.43,77.2535 1135.5,80C 1159.29,93.1636 1157.96,102.83 1131.5,109C 1112.51,108.667 1093.51,108.667 1074.5,109C 1065.33,109.796 1056.33,111.463 1047.5,114C 1032.81,120.882 1027.31,132.382 1031,148.5C 1038.66,161.497 1048.49,172.664 1060.5,182C 1073.83,192.667 1087.17,203.333 1100.5,214C 1140.79,248.453 1158.63,292.287 1154,345.5C 1146.5,398.285 1123.34,442.785 1084.5,479C 1058.46,502.521 1030.13,522.854 999.5,540C 992.384,545.45 988.217,552.617 987,561.5C 988.444,600.286 980.444,636.953 963,671.5C 953.006,689.161 938.84,702.327 920.5,711C 866.541,730.324 811.208,744.657 754.5,754C 731.222,761.603 712.056,775.103 697,794.5C 672.455,824.593 649.621,855.926 628.5,888.5C 629,888.833 629.5,889.167 630,889.5C 697.048,868.371 764.215,847.871 831.5,828C 846.933,824.57 861.599,826.57 875.5,834C 880.667,837.833 885.167,842.333 889,847.5C 907.082,873.991 924.415,900.991 941,928.5C 944.563,944.233 938.397,951.067 922.5,949C 914.359,946.433 907.359,942.1 901.5,936C 898.254,934.141 894.921,932.475 891.5,931C 880.751,930.225 870.084,928.891 859.5,927C 854.786,924.949 850.619,922.115 847,918.5C 842.892,910.847 839.558,902.847 837,894.5C 833.999,892.022 830.499,891.022 826.5,891.5C 819.415,892.417 812.415,893.917 805.5,896C 750.076,912.918 694.743,930.252 639.5,948C 627.888,953.139 616.554,958.806 605.5,965C 582.805,975.725 565.972,969.891 555,947.5C 550.912,926.786 553.912,907.12 564,888.5C 583.484,850.847 604.984,814.514 628.5,779.5C 604.191,787.299 580.525,797.465 557.5,810C 527.09,833.073 497.256,856.907 468,881.5C 464.571,899.892 455.071,914.059 439.5,924C 432.802,927.349 426.136,930.682 419.5,934C 414.032,938.467 408.865,943.3 404,948.5C 348.244,1025.01 292.244,1101.34 236,1177.5C 222.667,1192.83 209.333,1208.17 196,1223.5C 187.463,1235.23 180.463,1247.9 175,1261.5C 168.756,1268.06 161.589,1269.23 153.5,1265C 150.527,1260.62 148.694,1255.78 148,1250.5C 146.32,1234.45 147.987,1218.79 153,1203.5C 158.482,1192.87 163.149,1181.87 167,1170.5C 167.667,1165.83 167.667,1161.17 167,1156.5C 165.013,1148.74 163.513,1140.91 162.5,1133C 162.957,1122.2 167.957,1114.2 177.5,1109C 191.467,1105.48 205.467,1102.15 219.5,1099C 225.103,1096.95 229.936,1093.79 234,1089.5C 274.722,1032.44 315.056,975.11 355,917.5C 358.543,911.748 361.543,905.748 364,899.5C 368.322,869.844 384.489,849.677 412.5,839C 445.844,812.998 478.01,785.498 509,756.5C 513.667,751.167 518.333,745.833 523,740.5C 525.446,735.676 524.613,731.509 520.5,728C 516.5,726 512.5,724 508.5,722C 477.002,714.502 446.002,705.169 415.5,694C 394.654,685.914 375.321,675.247 357.5,662C 342.418,655.889 326.751,653.889 310.5,656C 277.57,658.804 248.237,670.471 222.5,691C 214.215,695.391 205.382,697.891 196,698.5C 192.048,698.22 188.215,697.387 184.5,696C 159.324,683.588 135.658,668.922 113.5,652C 106.152,645.993 100.319,638.827 96,630.5C 91.7342,616.298 91.4008,601.965 95,587.5C 107.413,540.755 136.58,509.922 182.5,495C 208.205,486.926 234.539,481.926 261.5,480C 298.556,477.696 335.556,474.696 372.5,471C 405.292,467.304 436.626,458.637 466.5,445C 502.912,423.461 540.912,405.128 580.5,390C 641.208,367.771 703.874,358.105 768.5,361C 788.875,363.675 808.875,368.008 828.5,374C 863.486,386.106 898.319,398.606 933,411.5C 947.939,416.553 963.106,420.72 978.5,424C 998.972,425.339 1019.31,424.339 1039.5,421C 1068.33,412.167 1087.17,393.333 1096,364.5C 1103.43,344.029 1105.43,323.029 1102,301.5C 1100.42,295.532 1098.09,289.865 1095,284.5C 1083.28,268.443 1069.78,253.943 1054.5,241C 1031.09,222.92 1009.59,202.754 990,180.5C 967.448,148.742 960.115,113.742 968,75.5C 971.459,61.0882 978.626,48.9215 989.5,39C 997.151,33.6238 1005.48,30.1238 1014.5,28.5 Z"/></g>
</svg>
